<svg width="604" height="546" viewBox="0 0 604 546" fill="none" xmlns="http://www.w3.org/2000/svg">
<path d="M76.395 462.961C133.395 438.961 159.07 422.606 202.596 399.897C303.088 437.745 412.593 389.822 458.395 368.961C559.395 322.961 538.395 252.823 480.654 279.867C574.395 235.961 555.404 170.779 502.018 186.776C575.431 140.535 554.395 67.9612 472.395 110.961C524.295 66.7069 473.835 20.7256 393.729 74.4026C363.689 94.5315 267.17 141.834 260.395 127.961" stroke="black" stroke-width="3" stroke-linecap="round"/>
<path d="M2.00035 287.232C44.837 275.119 78.5086 265.656 106.312 251.516C106.979 251.176 107.394 250.489 107.399 249.741C108.047 162.2 178.376 80.3049 276.059 11.1496C322.243 -17.4933 347.234 42.5733 253.308 134.076C252.763 134.607 252.531 135.383 252.751 136.111C255.796 146.193 276.848 220.185 252.396 262.961" stroke="black" stroke-width="3" stroke-linecap="round"/>
<path d="M476.065 108.529C447.179 130.567 418.395 150.961 365.394 169.884" stroke="black" stroke-width="3" stroke-linecap="round"/>
<path d="M502.017 186.778C469.413 205.469 428.142 225.89 386.039 238.12" stroke="black" stroke-width="3" stroke-linecap="round"/>
<path d="M480.655 279.867C454.743 291.123 438.395 296.961 403.844 307.825" stroke="black" stroke-width="3" stroke-linecap="round"/>
</svg>
