<svg width="272" height="80" viewBox="0 0 272 80" fill="none" xmlns="http://www.w3.org/2000/svg">
<g clip-path="url(#clip0_303_6522)">
<path d="M193.428 51.6683C193.428 43.1257 193.428 34.5844 193.428 26.0442C193.428 23.6805 193.768 23.4379 196.129 23.7529C198.662 24.0895 200.86 25.0379 202.311 27.2387C202.883 28.1038 203.364 27.883 204.096 27.4884C214.035 22.1493 223.385 23.3438 231.544 31.0865C232.561 32.0493 232.887 31.4195 233.499 30.8186C242.063 22.4244 254.855 21.9502 263.905 29.7797C269.008 34.1995 271.39 39.9657 271.445 46.6405C271.524 56.9713 271.474 67.2984 271.445 77.6292C271.445 79.6055 270.721 80.2535 268.733 79.9168C266.438 79.5229 264.286 78.5359 262.489 77.0536C261.947 76.6139 261.515 76.0523 261.23 75.4145C260.945 74.7768 260.815 74.0808 260.85 73.3832C260.893 64.6958 260.85 56.0374 260.991 47.3681C261.085 40.8743 256.94 35.6727 250.711 34.775C245.06 33.9569 239.489 37.7649 237.955 43.4913C237.638 44.8455 237.499 46.2351 237.542 47.6251C237.542 54.908 237.542 62.191 237.542 69.4739C237.542 72.0294 236.286 73.7343 234.082 74.48C233.107 74.8235 232.051 74.8609 231.055 74.5872C230.058 74.3136 229.169 73.7419 228.507 72.9488C227.591 71.8846 227.334 70.6358 227.338 69.2603C227.365 61.8471 227.365 54.4314 227.338 47.0134C227.313 40.6933 223.468 35.9804 217.499 34.851C210.694 33.5588 204.005 38.9992 203.976 45.9057C203.94 54.7777 203.875 63.6425 204.023 72.5253C204.07 75.3198 202.937 77.0283 200.635 78.2554C199.371 78.9796 198.007 79.515 196.588 79.8444C194.185 80.3331 193.435 79.7322 193.435 77.2925C193.426 68.7547 193.423 60.2134 193.428 51.6683Z" fill="white"/>
<path d="M10.4975 31.2821C13.73 28.7483 16.8031 26.8154 20.2708 25.6064C34.6557 20.5822 51.2124 30.0225 54.8503 45.3123C57.7461 57.5217 52.53 69.7528 41.6961 76.1091C31.1301 82.3024 17.223 80.9052 8.32568 72.5798C2.89607 67.5122 -0.0323088 61.2862 0.000268902 53.7137C0.0726638 36.4946 0.0219874 19.2754 0.0256071 2.05631C0.0256071 -0.22775 0.257271 -0.376162 2.39292 0.492577C8.00715 2.7694 10.4975 6.46153 10.4975 12.5318V31.2821ZM45.1494 52.0848C45.2109 42.6264 37.4284 34.7535 27.9411 34.6775C18.4537 34.6014 10.5663 42.4237 10.4975 51.8568C10.4529 54.1506 10.8643 56.4305 11.7077 58.5641C12.5512 60.6977 13.81 62.6425 15.411 64.2858C17.012 65.9291 18.9235 67.238 21.0344 68.1368C23.1453 69.0355 25.4137 69.506 27.7079 69.5211C30.0022 69.5362 32.2765 69.0955 34.3991 68.2247C36.5217 67.3539 38.4502 66.0702 40.0727 64.4481C41.6953 62.826 42.9795 60.8979 43.851 58.7756C44.7225 56.6533 45.1638 54.379 45.1494 52.0848Z" fill="white"/>
<path d="M95.8473 57.2648C89.6937 57.2648 83.5402 57.3227 77.3866 57.2286C75.5007 57.196 75.4971 57.7534 76.1631 59.2231C79.0589 65.6119 85.8858 69.742 92.9443 69.4561C98.7576 69.2172 104.165 67.8272 109.027 64.5296C109.245 64.3809 109.471 64.2443 109.704 64.1206C110.858 63.5269 112.111 63.0093 113.229 63.9722C114.348 64.935 114.232 66.2236 113.798 67.4725C112.165 72.1781 108.632 75.2006 104.314 77.0937C93.9071 81.6474 83.7935 80.8872 74.7804 73.7708C65.7672 66.6544 62.5312 57.0729 64.9673 45.9929C67.4033 34.9128 74.6066 27.7602 85.665 25.0165C102.797 20.7596 119.607 33.9464 119.777 51.5528C119.814 55.0712 117.692 57.2431 114.123 57.2575C108.028 57.2793 101.936 57.2612 95.8473 57.2648ZM108.382 46.9304C108.411 46.7008 108.411 46.4686 108.382 46.239C106.497 39.9877 99.6082 34.8224 92.966 34.6558C85.1763 34.4821 78.2553 38.9127 75.8591 45.5151C75.4609 46.6191 75.6745 46.9195 76.8038 46.9087C80.3801 46.8761 83.9564 46.9087 87.5291 46.9087L108.382 46.9304Z" fill="white"/>
<path d="M182.837 64.2905C182.837 68.7934 182.775 73.2928 182.866 77.7921C182.902 79.4862 182.196 79.9821 180.643 80.0002C177.302 80.04 174.978 78.4328 173.404 75.6565C172.68 74.3534 172.068 74.2086 170.707 75.0592C155.414 84.7638 136.276 79.1676 129.366 63.0489C124.298 51.2087 128.229 37.0736 138.687 29.5988C149.246 22.0517 163.696 22.4716 172.854 30.7354C179.416 36.6573 182.942 44.0235 182.851 52.986C182.797 56.7469 182.837 60.5187 182.837 64.2905ZM172.235 52.0304C172.206 42.5177 164.344 34.6556 154.914 34.7425C145.485 34.8294 137.612 42.6661 137.597 52.0992C137.597 61.63 145.561 69.5464 155.081 69.4486C159.663 69.4065 164.042 67.5495 167.257 64.2845C170.473 61.0195 172.263 56.6129 172.235 52.0304Z" fill="white"/>
</g>
<defs>
<clipPath id="clip0_303_6522">
<rect width="271.481" height="80" fill="white"/>
</clipPath>
</defs>
</svg>
