<svg width="269" height="80" viewBox="0 0 269 80" fill="none" xmlns="http://www.w3.org/2000/svg">
<path fill-rule="evenodd" clip-rule="evenodd" d="M47.3229 40.0593C47.2872 28.806 56.756 19.6499 68.4782 19.6076C80.0045 19.5653 89.528 28.7827 89.524 39.9732C89.521 51.3747 80.1075 60.6578 68.5647 60.632C56.7585 60.6072 47.3551 51.5007 47.3229 40.0593ZM58.5406 39.8282C58.4753 45.3374 62.8998 49.7241 68.5305 49.7489C73.8461 49.764 78.2807 45.4711 78.3501 40.2363C78.428 34.7787 74.0878 30.4532 68.4898 30.4095C63.1571 30.3642 58.5999 34.6843 58.5406 39.8282ZM41.9406 25.9221C41.9179 22.6325 39.9423 20.4625 37.137 20.0341C34.8433 19.6795 33.0477 20.7033 31.6606 22.3602C20.3887 16.7348 10.3701 20.6897 5.12387 26.8077C-1.03703 33.9918 -1.3466 43.9771 4.07603 51.31C8.76242 57.6484 18.88 62.873 31.0083 57.3269C31.0284 58.1984 30.8455 59.6501 30.6962 60.2619C28.9649 67.1946 21.2385 69.6301 15.444 66.9247C14.4377 66.4565 13.4972 65.8605 12.5547 65.2633C11.872 64.8306 11.1881 64.3973 10.4777 64.0115C8.87549 63.141 7.20548 63.178 5.65005 64.1594C4.04085 65.1734 3.29706 66.6144 3.46643 68.5067C3.63629 70.3582 4.67709 71.6732 6.11945 72.7417C12.9779 77.8161 21.2697 79.2264 29.1478 75.9155C37.3803 72.4504 41.3028 65.7195 41.7028 57.1173C42.1737 47.0148 41.9406 25.9221 41.9406 25.9221ZM11.1365 39.7991C11.1988 45.2893 15.4354 49.3127 21.1114 49.2713C26.5938 49.2305 30.8555 45.032 30.847 39.6707C30.8414 34.2461 26.5114 30.0904 20.8867 30.1123C15.2882 30.1381 11.0757 34.3176 11.1365 39.7991Z" fill="white"/>
<path fill-rule="evenodd" clip-rule="evenodd" d="M106.469 20.7167C106.476 19.8576 106.483 19.0132 106.459 18.172C106.418 16.7366 106.435 15.05 106.451 13.3213C106.474 11.0386 106.497 8.68247 106.39 6.73497C106.237 3.95559 103.627 2.54766 100.906 2.52188C97.3822 2.48735 95.2358 4.70405 95.2147 8.54266C95.1883 14.5617 95.1924 21.3289 95.1964 27.7376C95.1978 29.9846 95.1991 32.1876 95.1991 34.2988C95.1985 35.7044 95.1972 37.1099 95.196 38.5154C95.1912 43.7858 95.1865 49.0559 95.2147 54.3278C95.2313 57.6855 96.9184 59.8876 99.8614 60.5183C102.354 61.0504 104.161 59.8491 105.66 58.165C116.851 63.7709 127.107 60.2416 132.765 53.8405C139.268 46.4838 139.841 36.6905 134.38 28.792C128.428 20.1835 119.324 17.9269 106.462 21.9746C106.462 21.551 106.465 21.1321 106.469 20.7167ZM185.346 35.606C183.045 25.0327 172.573 18.3481 161.869 19.8474C150.771 21.3993 142.758 30.9382 143.567 42.0635C144.53 55.3394 158.597 63.4611 171.964 60.512C175.468 59.7378 179.162 57.825 181.72 55.4187C183.337 53.8974 184.147 51.2479 182.996 49.3886C182.079 47.901 180.906 47.2741 179.234 47.2663C178.297 47.2587 177.503 47.5664 176.654 47.8955C176.411 47.9896 176.163 48.0855 175.906 48.1762C175.135 48.4467 174.379 48.7921 173.623 49.1377C172.718 49.5509 171.813 49.9644 170.881 50.2504C165.274 51.9681 157.248 49.2967 155.522 43.9573H157.959C159.955 43.9573 161.95 43.9585 163.946 43.9598C169.285 43.963 174.625 43.9663 179.963 43.9461C182.93 43.9354 185.149 42.1802 185.568 39.3542C185.75 38.1364 185.608 36.8214 185.346 35.606ZM251.846 23.0392C251.711 22.8159 251.676 22.7536 251.644 22.6958C251.623 22.6572 251.602 22.6206 251.554 22.5398C250.383 20.5667 248.889 19.6699 246.605 19.8674C244.139 20.0823 242.348 21.2865 241.749 23.7167C241.492 24.7618 241.407 25.8692 241.407 26.9445C241.379 35.225 241.386 43.5007 241.393 51.777L241.395 53.3192L241.395 53.4948C241.394 54.2245 241.394 54.9563 241.474 55.6793C241.534 56.2542 241.648 56.7838 241.809 57.2711C242.572 59.6001 244.41 60.9055 247.012 60.9137C249.947 60.922 252.064 58.9115 252.41 55.7231C252.541 54.5228 252.609 53.3104 252.618 52.1009C252.632 50.3169 252.641 48.7461 252.65 47.2337V47.2204C252.666 44.5733 252.68 42.1038 252.72 38.9821C252.729 38.3076 252.794 37.6525 252.913 37.0227C253.718 32.7109 256.929 31.2329 260.975 30.4149C261.313 30.3449 262.325 30.1766 262.897 30.1577C265.594 30.0672 268.919 27.8943 268.799 24.7224C268.675 21.4859 266.238 19.6441 262.475 19.8878C262.475 19.8878 262.074 19.9165 261.889 19.9218C259.46 20.0833 257.019 20.646 254.614 21.6571C253.893 21.9596 253.202 22.2849 252.55 22.6453C252.468 22.6886 251.846 23.0392 251.846 23.0392ZM165.017 28.8241C160.217 28.8241 156.688 32.0057 155.783 35.8302H173.774C173.257 31.8141 169.523 28.8241 165.017 28.8241ZM233.42 25.8274C233.413 23.3111 232.499 21.1489 229.788 20.2637C227.077 19.3796 224.908 20.3197 223.123 22.5184C211.569 16.5073 200.975 20.7919 195.555 27.2601C189.123 34.9393 189.078 45.3793 195.463 53.2277C200.713 59.6731 211.461 64.159 223.008 58.235C223.254 58.4281 223.491 58.6342 223.726 58.8394C224.237 59.2844 224.743 59.7251 225.328 60.0194C229.24 61.9885 233.258 59.7635 233.341 55.2956C233.505 46.6825 233.469 38.0653 233.434 29.4482C233.429 28.2412 233.424 27.0343 233.42 25.8274ZM201.891 40.3706C201.833 45.977 206.443 50.2076 212.205 50.1809C217.895 50.1561 222.185 45.9401 222.238 40.3254C222.294 34.719 217.863 30.4101 212.065 30.4266C207.366 30.287 201.963 33.6763 201.891 40.3706ZM106.504 40.1265C106.419 45.7548 110.799 50.1337 116.557 50.1775C122.391 50.2242 126.806 46.0111 126.836 40.3837C126.862 34.7914 122.574 30.4888 116.916 30.4329C111.046 30.3741 106.591 34.523 106.504 40.1265Z" fill="white"/>
</svg>
