<svg width="226" height="80" viewBox="0 0 226 80" fill="none" xmlns="http://www.w3.org/2000/svg">
<g clip-path="url(#clip0_303_6500)">
<path d="M33.8579 79.8983C24.7398 79.0875 16.7596 75.4756 10.6974 69.4157C4.97257 63.6931 1.45984 56.4298 0.266063 47.8467C-0.0273196 45.7374 -0.0926811 40.7819 0.143532 38.5568C0.910052 31.3364 3.53886 24.8847 7.97887 19.327C9.17545 17.8292 11.6618 15.2896 13.0933 14.1029C20.6817 7.81272 30.26 4.74842 40.6276 5.29415C45.519 5.55162 48.8771 6.15216 52.6353 7.44148C55.2434 8.33626 58.9919 10.2293 60.1482 11.2357L60.4404 11.4899L60.4073 14.3343L60.3742 17.1787L59.1367 16.4171C53.4599 12.9232 46.2591 11.074 38.3485 11.0787C31.6439 11.0827 25.4558 12.8789 20.1872 16.3505C14.7664 19.9224 10.6819 24.9648 8.29077 31.037C5.05375 39.2573 5.55462 49.302 9.60585 57.4105C14.2241 66.6539 22.7323 72.601 33.2882 73.9641C36.3943 74.3652 40.9749 74.1826 44.2287 73.528C54.8757 71.3859 61.5568 64.1042 62.98 53.0911C63.1285 51.942 63.181 50.5574 63.1903 47.5521L63.2026 43.5452L50.6221 43.5152L38.0415 43.4852V37.8295H68.8005L68.7994 42.9265C68.7982 48.6739 68.6728 51.6816 68.3339 54.0873C67.3107 61.3518 64.6056 67.1343 60.1424 71.5975C55.6191 76.1208 49.8305 78.7743 42.402 79.7297C40.6683 79.9527 35.595 80.0528 33.8579 79.8983ZM177.341 12.3882V-0.000488281H183.115V20.9411L182.616 21.1652C181.584 21.6286 180.121 22.6267 177.488 24.663C177.37 24.754 177.341 22.2814 177.341 12.3882ZM168.62 16.8757V-0.000488281H174.394V27.0133L173.492 27.9725C172.567 28.955 170.906 30.9081 169.568 32.5851C169.154 33.1037 168.771 33.5783 168.718 33.6399C168.664 33.7015 168.62 26.1576 168.62 16.8757Z" fill="black"/>
<path d="M35.3897 71.1095C28.1381 70.5393 22.0318 67.7403 17.2246 62.7832C15.8127 61.3273 14.9989 60.3162 13.9138 58.6698C9.89268 52.5687 8.32904 44.6004 9.69889 37.1908C11.4551 27.6912 18.0113 19.8052 27.1941 16.1468C29.5292 15.2165 32.4104 14.5303 35.1483 14.2524C36.925 14.0722 41.6962 14.173 43.5803 14.4307C49.6465 15.2604 55.062 17.1345 59.4011 19.9059L60.4317 20.5641L60.4323 23.3589C60.4328 25.906 60.4145 26.1636 60.2255 26.2647C60.0633 26.3515 59.698 26.1727 58.5462 25.4426C54.0012 22.5617 49.1626 20.8788 43.4624 20.1964C41.2902 19.9364 36.597 19.9029 34.9772 20.136C24.561 21.6344 17.141 29.1272 15.8218 39.4791C15.4627 42.297 15.7069 46.2702 16.4086 49.025C17.9756 55.177 21.7622 60.1797 26.8317 62.7954C30.2717 64.5704 33.2964 65.2883 37.3342 65.2883C42.9878 65.2883 47.5351 63.6807 50.6542 60.5793C52.676 58.5689 53.8573 56.1312 54.1261 53.4149L54.2107 52.5605H38.0413V46.5501H60.1971V48.9536C60.1971 52.6609 59.901 54.864 59.0682 57.3534C57.3804 62.398 53.8014 66.4028 48.8835 68.7497C45.685 70.2761 42.2808 71.0186 38.0586 71.1105C36.9148 71.1355 35.7137 71.135 35.3897 71.1094V71.1095ZM195.807 71.1737C191.225 70.7672 187.191 68.7461 183.748 65.1317C181.279 62.5405 179.53 59.4488 178.769 56.3317C178.328 54.5257 178.189 54.8784 180.706 51.4091C181.934 49.7164 182.973 48.3284 183.015 48.3247C183.058 48.3209 183.127 48.888 183.169 49.5848C183.276 51.3479 183.434 52.4274 183.788 53.7979C185.361 59.8835 189.78 64.281 195.292 65.2448C196.756 65.5007 199.27 65.4076 200.675 65.0456C205.751 63.7373 209.126 59.9005 210.415 53.9747C210.726 52.5438 210.728 48.3401 210.418 46.931C209.787 44.0588 208.555 41.6346 206.773 39.7589C204.228 37.0787 200.888 35.7079 196.903 35.7079C191.79 35.7079 188.071 37.7823 183.164 43.3702C178.368 48.8334 170.402 58.9577 166.397 64.6809L164.966 66.7251V57.2156L167.003 54.4461C168.123 52.9229 170.086 50.3243 171.365 48.6714C172.644 47.0186 174.419 44.7119 175.309 43.5456C179.398 38.1863 182.037 35.4974 185.389 33.273C192.305 28.6843 201.405 28.5688 208.005 32.9858C214.74 37.4934 217.976 46.3087 216.17 55.2273C214.714 62.4221 210.106 67.9735 203.731 70.2144C202.352 70.6992 200.767 71.0261 199.083 71.1729C197.53 71.3084 197.324 71.3084 195.806 71.1741L195.807 71.1737ZM147.524 63.5062C147.524 50.6885 147.499 48.4734 147.342 47.4125C146.765 43.5279 144.971 40.2913 142.272 38.266C140.523 36.9528 138.56 36.1368 136.229 35.7532C134.559 35.4784 132.064 35.5857 130.495 35.9999C125.255 37.383 121.487 41.6511 120.349 47.4929C120.025 49.1597 120.053 52.3043 120.407 53.9747C121.573 59.4733 125.061 63.4436 129.965 64.855C134.281 66.0973 140.229 65.1665 143.902 62.6739L144.582 62.2127L144.55 65.2504L144.519 68.288L143.341 68.9043C140.359 70.4635 135.686 71.4584 132.38 71.2376C126.053 70.815 120.961 67.9425 117.573 62.8848C113.966 57.5006 113.044 49.6867 115.238 43.0964C118.136 34.3904 126.263 29.0728 135.533 29.817C140.559 30.2205 144.334 31.9068 147.647 35.228C150.708 38.2981 152.35 41.6132 153.138 46.3144C153.327 47.4419 153.349 48.9211 153.386 62.9608L153.427 78.3697H147.524V63.5062ZM81.4119 63.1376C81.4137 47.5151 81.4632 45.4214 81.8783 43.3841C82.9448 38.1511 86.0489 33.989 90.5869 31.7074C91.6611 31.1673 93.8937 30.4546 95.1987 30.2352C99.1324 29.5739 103.221 30.1718 106.124 31.8329L106.738 32.1841L106.252 32.9738C105.985 33.4081 105.4 34.5191 104.953 35.4427C104.505 36.3664 104.129 37.1221 104.118 37.1221C104.106 37.122 103.593 36.9423 102.977 36.7226C100.342 35.7827 97.9343 35.6304 95.4723 36.2478C93.1672 36.8259 91.0672 38.1876 89.7076 39.986C88.949 40.9892 88.072 42.8394 87.6854 44.2521L87.3629 45.4306L87.3297 61.9001L87.2964 78.3697H81.4102L81.4119 63.1376Z" fill="black"/>
<path d="M72.8077 62.1359C72.8078 45.913 72.8357 44.6013 73.2321 42.1898C74.4539 34.7574 78.3438 28.6924 84.1496 25.1676C89.6686 21.8169 96.9906 20.6705 104.038 22.0536C106.548 22.5462 109.668 23.7601 111.591 24.9923L112.369 25.4901L110.99 26.8573C110.232 27.6093 109.372 28.5073 109.079 28.8528L108.547 29.4811L107.854 29.1314C105.539 27.9634 101.621 27.1049 98.6062 27.1049C89.1254 27.1049 81.7313 32.6093 79.415 41.3915C78.6193 44.4083 78.6561 43.4726 78.6126 61.7824L78.5731 78.3698H72.8076L72.8077 62.1359ZM194.901 79.9468C186.054 79.1406 178.726 74.8945 174.222 67.9657C173.512 66.8726 172.277 64.3869 172.033 63.5603L171.889 63.0696L173.937 60.2831L175.986 57.4966L176.089 57.8865C177.415 62.8675 180.323 67.1044 184.421 70.0284C185.696 70.9375 188.011 72.1676 189.546 72.7504C193.397 74.2131 197.665 74.5652 201.822 73.7631C204.526 73.2412 207.737 71.8669 209.985 70.2691C211.368 69.2864 213.932 66.7416 214.865 65.426C217.147 62.2089 218.648 58.3849 219.253 54.2521C219.53 52.358 219.532 48.5364 219.257 46.6612C218.299 40.1179 215.32 34.853 210.516 31.2093C206.472 28.1426 200.775 26.5514 195.341 26.9705C187.112 27.6052 181.442 31.3478 173.286 41.5284C172.449 42.5727 170.254 45.4424 168.408 47.9055C166.562 50.3686 165.032 52.4059 165.009 52.4329C164.986 52.4599 164.967 50.5496 164.967 48.1877V43.8934L166.943 41.1265C171.131 35.2616 172.944 33.0205 175.805 30.169C178.784 27.1995 181.168 25.4405 184.353 23.8623C187.029 22.5363 189.601 21.7389 192.779 21.2502C194.686 20.957 199.357 20.957 201.264 21.2502C207.761 22.2491 212.93 24.8823 217.292 29.4141C221.564 33.8522 224.121 39.358 225.088 46.1967C225.301 47.6985 225.301 53.1737 225.09 54.6819C224.402 59.5726 222.816 63.9606 220.426 67.5865C215.989 74.3163 209.526 78.4753 201.559 79.7269C200.42 79.9059 196.04 80.0506 194.901 79.9468H194.901ZM130.908 79.8852C118.136 78.7157 108.277 69.7386 105.817 57.0389C105.351 54.634 105.275 53.731 105.275 50.5571C105.275 46.6699 105.537 44.6625 106.46 41.4805C108.876 33.1507 115.012 26.2467 122.835 23.056C126.572 21.5319 129.816 20.9187 134.09 20.9288C138.234 20.9386 141.288 21.4758 144.755 22.8051C148.456 24.2238 151.445 26.1946 154.252 29.0671C158.335 33.2452 160.766 38.2739 161.817 44.7155C162.064 46.2246 162.07 46.5786 162.108 62.3127L162.148 78.3698H156.246L156.244 63.6091C156.243 54.4446 156.197 48.3121 156.121 47.4341C155.619 41.6073 153.245 36.4704 149.349 32.7834C144.978 28.647 138.575 26.4648 132.293 26.9708C121.5 27.8401 113.478 35.2407 111.582 46.0788C111.052 49.1035 111.145 53.1377 111.821 56.4829C112.308 58.8953 113.541 62.0718 114.758 64.048C117.301 68.1796 121.045 71.1964 125.642 72.8171C129.58 74.2055 134.089 74.5568 137.928 73.7742C140.121 73.3272 142.731 72.3228 144.04 71.4225L144.578 71.0518V76.9052L143.901 77.3521C141.972 78.6241 139.136 79.5554 136.152 79.8965C134.92 80.0374 132.513 80.0321 130.908 79.8852Z" fill="black"/>
</g>
<defs>
<clipPath id="clip0_303_6500">
<rect width="225.249" height="80" fill="black"/>
</clipPath>
</defs>
</svg>
