<svg width="613" height="583" viewBox="0 0 613 583" fill="none" xmlns="http://www.w3.org/2000/svg">
<path d="M473.854 276.591C493.854 308.591 525.854 356.591 555.854 434.591C515.001 458.59 419 474 355.854 458.59C344.362 397.389 341.916 381.011 320.694 336.353C320.232 335.381 319.058 334.939 318.063 335.349C265.788 356.918 218.645 327.312 100.854 283.591C48.1554 260.289 95.8518 209.591 189.853 235.591L189.739 234C187.529 197.823 132.284 125.724 108.87 102.153C37.0506 29.8513 90.1332 -9.28147 146.497 35.6538C163.117 50.449 178.603 66.0622 194.789 85.5L194.853 85.5905C200.129 72.069 226.852 50.0909 257.854 61.5908C270.852 44.5905 300.352 38.5905 326.354 50.0908C355.352 35.6538 397.354 48.5908 429.354 98.5908C454.512 137.901 486.852 199.591 473.854 276.591Z" fill="#FBFBFB"/>
<path d="M555.854 434.591C525.854 356.591 493.854 308.591 473.854 276.591C486.853 199.591 454.512 137.901 429.354 98.5909C397.354 48.5909 355.353 35.6538 326.354 50.0909C300.353 38.5906 270.853 44.5906 257.854 61.5909C226.853 50.0909 200.13 72.0691 194.853 85.5905M146.498 35.6538C90.1337 -9.28141 37.051 29.8513 108.871 102.153C135.803 129.266 204.854 220.591 186.854 247.591" stroke="black" stroke-width="3" stroke-linecap="round"/>
<path d="M355.854 458.59C344.363 397.389 341.917 381.011 320.695 336.353C320.233 335.381 319.058 334.939 318.064 335.349C265.789 356.918 218.645 327.312 100.854 283.591C48.1558 260.289 95.8522 209.591 189.854 235.591" stroke="black" stroke-width="3" stroke-linecap="round"/>
<path d="M146.498 35.6539C175.178 61.1857 200.481 89.1534 231.834 135.008" stroke="black" stroke-width="3" stroke-linecap="round"/>
<path d="M256.854 61.0909C271.854 69.091 287.854 83.091 305.006 111.053" stroke="black" stroke-width="3" stroke-linecap="round"/>
<path d="M327.354 50.591C347.852 61.0906 359.354 71.591 373.486 94.473" stroke="black" stroke-width="3" stroke-linecap="round"/>
</svg>
