<svg width="738" height="333" viewBox="0 0 738 333" fill="none" xmlns="http://www.w3.org/2000/svg">
<path d="M2 80.5C39 58 95.4525 40.8405 143 51C232.923 70.2138 304.936 187.668 339.575 255.236C344.615 265.067 361.468 261.184 361.328 250.138L359.304 90.9433C359.122 76.5831 367.982 63.6568 381.441 58.6469L527.53 4.26924C534.837 1.54966 542.95 2.03167 549.883 5.59719V5.59719C559.093 10.3334 558.311 23.7466 548.588 27.3113C505.395 43.1471 420.743 74.2244 404.5 80.5C403.534 80.8733 402.671 81.2707 401.904 81.6894C381.249 92.9641 427.058 105.072 449.074 96.7645L602.998 38.68C614.117 34.4841 626 42.6878 626 54.5722C626 68.272 626 86.136 626 104C626 167 577 190.5 577 158.5C577 132.593 625.757 110 626 167C626.059 180.833 626.047 204.072 626.028 220.399C626.015 231.675 619.234 241.825 608.829 246.17C581.509 257.578 526.388 280.598 479 300.409C440 316.714 421 328.462 401 330C381 331.538 375 312 391 303C407 294 487.5 267 736 267M736 267L711 244M736 267L711 291" stroke="white" stroke-width="4" stroke-linecap="round" stroke-linejoin="round"/>
</svg>
