<svg width="716" height="333" viewBox="0 0 716 333" fill="none" xmlns="http://www.w3.org/2000/svg">
<path d="M2 148C25 85 57.4761 12.7288 106 104C148 183 163.168 256.819 197 197C235.317 129.251 262.147 160.409 327.798 270.522C333.05 279.331 346.652 275.592 346.521 265.337L344.304 90.9433C344.122 76.5831 352.982 63.6568 366.441 58.6469L512.53 4.26924C519.837 1.54966 527.95 2.03167 534.883 5.59719V5.59719C544.093 10.3334 543.311 23.7466 533.588 27.3113C490.395 43.1471 405.743 74.2244 389.5 80.5C388.534 80.8733 387.671 81.2707 386.904 81.6894C366.249 92.9641 412.058 105.072 434.074 96.7645L587.998 38.68C599.117 34.4841 611 42.6878 611 54.5722C611 68.272 611 86.136 611 104C611 167 562 190.5 562 158.5C562 132.593 610.757 110 611 167C611.059 180.833 611.047 204.072 611.028 220.399C611.015 231.675 604.234 241.825 593.829 246.17C566.509 257.578 511.388 280.598 464 300.409C425 316.714 406 328.462 386 330C366 331.538 353 311 376 303C399 295 586.5 356.5 714 173M714 173L682.5 182.5M714 173V205.5" stroke="white" stroke-width="4" stroke-linecap="round" stroke-linejoin="round"/>
</svg>
