<svg width="369" height="333" viewBox="0 0 369 333" fill="none" xmlns="http://www.w3.org/2000/svg">
<path d="M2 303H47.4219C62.5574 303 74.7364 290.56 74.4158 275.428L70.5118 91.1559C70.2053 76.6921 79.0853 63.6183 92.6436 58.5716L238.53 4.26924C245.837 1.54966 253.95 2.03167 260.883 5.59719V5.59719C270.093 10.3334 269.311 23.7466 259.588 27.3113C216.395 43.1471 131.743 74.2244 115.5 80.5C114.534 80.8733 113.671 81.2707 112.904 81.6894C92.2492 92.9641 138.058 105.072 160.074 96.7645L313.998 38.68C325.117 34.4841 337 42.6878 337 54.5722C337 68.272 337 86.136 337 104C337 167 288 190.5 288 158.5C288 132.593 336.757 110 337 167C337.059 180.833 337.047 204.072 337.028 220.399C337.015 231.675 330.234 241.825 319.829 246.17C292.509 257.578 237.388 280.598 190 300.409C151 316.714 132 328.462 112 330C92 331.538 86 312 102 303C118 294 118.5 303 367 303M367 303L344 280M367 303L344 327" stroke="white" stroke-width="4" stroke-linecap="round" stroke-linejoin="round"/>
</svg>
