<svg width="1069" height="333" viewBox="0 0 1069 333" fill="none" xmlns="http://www.w3.org/2000/svg">
<path d="M2 272C484 279 443 228 491 252C523.754 268.377 544.023 287.104 582 239C618.368 192.934 629.916 238.308 666.263 270.08C679.447 281.604 697 270.234 697 252.724V90.6234C697 76.4204 705.829 63.7138 719.139 58.7592L865.53 4.26924C872.837 1.54966 880.95 2.03167 887.883 5.59719V5.59719C897.093 10.3334 896.311 23.7466 886.588 27.3113C843.395 43.1471 758.743 74.2244 742.5 80.5C741.534 80.8733 740.671 81.2707 739.904 81.6894C719.249 92.9641 765.058 105.072 787.074 96.7645L940.998 38.68C952.117 34.4841 964 42.6878 964 54.5722C964 68.272 964 86.136 964 104C964 167 915 190.5 915 158.5C915 132.593 963.757 110 964 167C964.06 181.043 964.047 204.779 964.027 221.136C964.014 232.039 957.708 241.902 947.789 246.427C919.516 259.325 859.571 286.428 811 306.734C772 323.039 759 328.462 739 330C719 331.538 706 311 729 303C752 295 939.5 356.5 1067 173M1067 173L1035.5 182.5M1067 173V205.5" stroke="white" stroke-width="4" stroke-linecap="round" stroke-linejoin="round"/>
</svg>
