<svg width="394" height="267" viewBox="0 0 394 267" fill="none" xmlns="http://www.w3.org/2000/svg"><path d="M245.5.5s38.013 16.267 63 25c33.5 11.709 70 21 70 21s-42.144 34.498-70 55.5c-29.507 22.247-76 53-76 53s-40.5-12.298-76-31C121 105.298 90 82.5 90 82.5s53.288-24.231 86.5-42.5c27.205-14.964 69-39.5 69-39.5z" fill="url(#a)"/><path d="M172.917 95s41.18 17.558 68.25 26.984C270.354 132.148 320.5 145.5 320.5 145.5s-39 34.5-71 60-80 59.5-80 59.5-53-14.5-93-31.5C46.675 220.824.5 190 .5 190s61.25-29.843 95.5-49.5c43.559-25 76.917-45.5 76.917-45.5z" fill="url(#b)"/><path d="M308 102l85.5-25v10L379 123.5s-23.885-2.702-37.5-5c-13.141-2.218-33.5-6.5-33.5-6.5v-10z" fill="#FCBB58"/><path d="M334.5 70s17.034 2.675 28 4c12.075 1.46 31 3 31 3L377 113.5s-21.885-2.702-35.5-5c-13.141-2.218-33.5-6.5-33.5-6.5l26.5-32z" fill="#FFE483"/><path d="M336.5 164s3.5-2 7 .5 2 6.5 2 6.5L278 263.5s-4.5 6-10.5 2-2.5-10-2.5-10l71.5-91.5z" fill="#6760C2"/><path d="M336.5 164s3.5-2 7 .5 2 6.5 2 6.5L278 263.5s-4.5 6-10.5 2-2.5-10-2.5-10l71.5-91.5z" fill="url(#c)"/><path d="M336.5 164s3.5-2 7 .5 2 6.5 2 6.5L278 263.5s-4.5 6-10.5 2-2.5-10-2.5-10l71.5-91.5z" fill="url(#d)"/><path d="M336.5 164s3.5-2 7 .5 2 6.5 2 6.5L278 263.5s-4.5 6-10.5 2-2.5-10-2.5-10l71.5-91.5z" fill="url(#e)"/><path d="M336.5 164s3.5-2 7 .5 2 6.5 2 6.5L278 263.5s-4.5 6-10.5 2-2.5-10-2.5-10l71.5-91.5z" fill="url(#f)"/><path d="M371.5 155s3-3 7-.5 2.5 6.5 2.5 6.5l-45.5 98.5s-3.5 6-9.5 3-3-10.5-3-10.5l48.5-97z" fill="#A74053"/><path d="M371.5 155s3-3 7-.5 2.5 6.5 2.5 6.5l-45.5 98.5s-3.5 6-9.5 3-3-10.5-3-10.5l48.5-97z" fill="url(#g)"/><path d="M371.5 155s3-3 7-.5 2.5 6.5 2.5 6.5l-45.5 98.5s-3.5 6-9.5 3-3-10.5-3-10.5l48.5-97z" fill="url(#h)"/><path d="M371.5 155s3-3 7-.5 2.5 6.5 2.5 6.5l-45.5 98.5s-3.5 6-9.5 3-3-10.5-3-10.5l48.5-97z" fill="url(#i)"/><path d="M371.5 155s3-3 7-.5 2.5 6.5 2.5 6.5l-45.5 98.5s-3.5 6-9.5 3-3-10.5-3-10.5l48.5-97z" fill="url(#j)"/><defs><radialGradient id="a" cx="0" cy="0" r="1" gradientUnits="userSpaceOnUse" gradientTransform="rotate(77.471 80.643 161.19) scale(101.415 257.431)"><stop offset=".466" stop-color="#EFE6E4"/><stop offset=".886" stop-color="#E0C9BF"/></radialGradient><radialGradient id="b" cx="0" cy="0" r="1" gradientUnits="userSpaceOnUse" gradientTransform="matrix(44.49979 122.99972 -176.38624 63.81437 152.5 142)"><stop offset=".405" stop-color="#EFE6E4"/><stop offset="1" stop-color="#E0C9BF"/></radialGradient><radialGradient id="c" cx="0" cy="0" r="1" gradientUnits="userSpaceOnUse" gradientTransform="matrix(4 -5.5 6.6 4.8 270.5 261)"><stop offset=".764" stop-color="#8F87E6"/><stop offset="1" stop-color="#8F87E6" stop-opacity="0"/></radialGradient><radialGradient id="d" cx="0" cy="0" r="1" gradientUnits="userSpaceOnUse" gradientTransform="matrix(3 -4.5 5.4 3.6 320.5 194.5)"><stop offset=".877" stop-color="#8F87E6"/><stop offset="1" stop-color="#8F87E6" stop-opacity="0"/></radialGradient><radialGradient id="e" cx="0" cy="0" r="1" gradientUnits="userSpaceOnUse" gradientTransform="matrix(3 -4.5 5.40001 3.60001 319.5 196)"><stop offset=".86" stop-color="#4D33B5"/><stop offset="1" stop-color="#4D33B5" stop-opacity="0"/></radialGradient><radialGradient id="f" cx="0" cy="0" r="1" gradientUnits="userSpaceOnUse" gradientTransform="matrix(3.5 -4.5 5.2823 4.10846 318 198)"><stop offset=".903" stop-color="#6760C2"/><stop offset="1" stop-color="#6760C2" stop-opacity="0"/></radialGradient><radialGradient id="g" cx="0" cy="0" r="1" gradientUnits="userSpaceOnUse" gradientTransform="matrix(3 -5.5 6.21495 3.38998 328 258)"><stop offset=".764" stop-color="#E7749D"/><stop offset="1" stop-color="#E7749D" stop-opacity="0"/></radialGradient><radialGradient id="h" cx="0" cy="0" r="1" gradientUnits="userSpaceOnUse" gradientTransform="matrix(2.67687 -5.13602 5.71796 2.98017 362.5 187)"><stop offset=".877" stop-color="#E7759E"/><stop offset="1" stop-color="#8F87E6" stop-opacity="0"/></radialGradient><radialGradient id="i" cx="0" cy="0" r="1" gradientUnits="userSpaceOnUse" gradientTransform="matrix(2 -4.5 5.90925 2.62634 362 188)"><stop offset=".86" stop-color="#772C3A"/><stop offset="1" stop-color="#4D33B5" stop-opacity="0"/></radialGradient><radialGradient id="j" cx="0" cy="0" r="1" gradientUnits="userSpaceOnUse" gradientTransform="matrix(2.5 -4.5 5.31354 2.95197 361 190)"><stop offset=".903" stop-color="#A74053"/><stop offset="1" stop-color="#6760C2" stop-opacity="0"/></radialGradient></defs></svg>