<svg width="170" height="268" viewBox="0 0 170 268" fill="none" xmlns="http://www.w3.org/2000/svg">
<path d="M153.931 267.364C153.731 267.878 153.151 268.132 152.636 267.932C152.122 267.731 151.867 267.151 152.068 266.636L153.931 267.364ZM0.292576 8.70691C-0.0979481 8.31639 -0.0979479 7.68322 0.292576 7.2927L6.65654 0.92874C7.04706 0.538216 7.68023 0.538216 8.07075 0.928741C8.46128 1.31926 8.46128 1.95243 8.07075 2.34295L2.4139 7.99981L8.07075 13.6567C8.46127 14.0472 8.46127 14.6804 8.07075 15.0709C7.68022 15.4614 7.04706 15.4614 6.65654 15.0709L0.292576 8.70691ZM152.068 266.636C175.963 205.406 170.226 140.971 142.504 91.8665C114.791 42.7791 65.1096 8.99982 0.999683 8.99981L0.999683 6.99981C65.89 6.99982 116.208 41.2207 144.246 90.8833C172.273 140.529 178.037 205.594 153.931 267.364L152.068 266.636Z" fill="black"/>
</svg>
