<svg width="96" height="268" viewBox="0 0 96 268" fill="none" xmlns="http://www.w3.org/2000/svg">
<path d="M25.8954 266.702C26.1863 267.171 26.8027 267.316 27.2722 267.025C27.7416 266.734 27.8863 266.117 27.5954 265.648L25.8954 266.702ZM95.8571 6.51456C96.1414 6.04107 95.9881 5.42676 95.5146 5.14245L87.7988 0.509292C87.3253 0.224979 86.711 0.378329 86.4267 0.85181C86.1424 1.32529 86.2957 1.93961 86.7692 2.22392L93.6277 6.34228L89.5093 13.2008C89.225 13.6743 89.3784 14.2886 89.8518 14.5729C90.3253 14.8572 90.9396 14.7039 91.224 14.2304L95.8571 6.51456ZM27.5954 265.648C4.68675 228.686 -3.74704 170.277 6.29516 117.91C16.3376 65.5418 44.7706 19.5691 95.242 6.96999L94.7576 5.02953C43.2084 17.8977 14.4451 64.7913 4.33095 117.533C-5.78346 170.277 2.66585 229.222 25.8954 266.702L27.5954 265.648Z" fill="black"/>
</svg>
